<svg width="100%" height="100%" viewBox="0 0 484 15" fill="none" xmlns="http://www.w3.org/2000/svg">
<line opacity="0.3" y1="5.5" x2="160" y2="5.5" stroke="black"/>
<line opacity="0.3" x1="324" y1="5.5" x2="484" y2="5.5" stroke="black"/>
<path d="M235.101 0.68457C236.067 0.68457 236.937 0.855469 237.708 1.19727C238.489 1.53906 239.153 2.0127 239.7 2.61816C240.247 3.22363 240.667 3.95117 240.96 4.80078C241.253 5.64062 241.399 6.55859 241.399 7.55469C241.399 9.58594 240.828 11.2363 239.686 12.5059C238.553 13.7852 237.024 14.4248 235.101 14.4248C234.144 14.4248 233.274 14.2588 232.493 13.9268C231.722 13.585 231.062 13.1113 230.516 12.5059C229.969 11.8906 229.544 11.1631 229.241 10.3232C228.948 9.4834 228.802 8.56055 228.802 7.55469C228.802 6.55859 228.948 5.64062 229.241 4.80078C229.534 3.95117 229.949 3.22363 230.486 2.61816C231.033 2.0127 231.697 1.53906 232.479 1.19727C233.26 0.855469 234.134 0.68457 235.101 0.68457ZM235.101 1.63672C234.104 1.63672 233.309 2.12012 232.713 3.08691C232.127 4.05371 231.834 5.54297 231.834 7.55469C231.834 9.56641 232.127 11.0557 232.713 12.0225C233.309 12.9795 234.104 13.458 235.101 13.458C236.097 13.458 236.888 12.9746 237.474 12.0078C238.069 11.041 238.367 9.55664 238.367 7.55469C238.367 6.54883 238.289 5.6748 238.133 4.93262C237.977 4.19043 237.757 3.5752 237.474 3.08691C237.19 2.59863 236.849 2.2373 236.448 2.00293C236.048 1.75879 235.599 1.63672 235.101 1.63672ZM244.314 1.94434C246.209 1.74902 247.859 1.34863 249.266 0.743164C249.51 0.84082 249.681 0.967773 249.778 1.12402V3.64355C250.14 2.95996 250.677 2.2959 251.39 1.65137C252.112 1.00684 252.864 0.68457 253.646 0.68457C254.231 0.68457 254.705 0.860352 255.066 1.21191C255.438 1.55371 255.623 2.02734 255.623 2.63281C255.623 3.20898 255.452 3.6582 255.11 3.98047C254.769 4.30273 254.339 4.46387 253.821 4.46387C253.343 4.46387 252.947 4.3125 252.635 4.00977C252.332 3.69727 252.166 3.28711 252.137 2.7793C251.727 2.95508 251.258 3.3457 250.73 3.95117C250.213 4.55664 249.896 5.15723 249.778 5.75293C249.778 7.93066 249.817 10.0107 249.896 11.9932C249.905 12.2471 249.998 12.4668 250.174 12.6523C250.35 12.8281 250.608 12.9648 250.95 13.0625C251.292 13.1602 251.575 13.2334 251.8 13.2822C252.024 13.3213 252.317 13.3604 252.679 13.3994C252.737 13.5166 252.767 13.6387 252.767 13.7656C252.767 13.8633 252.737 13.9707 252.679 14.0879C251.214 14.0293 249.764 14 248.328 14C247.137 14 245.896 14.0293 244.607 14.0879C244.568 13.9316 244.549 13.8242 244.549 13.7656C244.549 13.7168 244.568 13.5947 244.607 13.3994C244.93 13.3604 245.193 13.3213 245.398 13.2822C245.604 13.2334 245.857 13.1602 246.16 13.0625C246.463 12.9648 246.692 12.8281 246.849 12.6523C247.005 12.4668 247.088 12.2471 247.098 11.9932C247.137 11.0264 247.156 9.85449 247.156 8.47754C247.156 8.01855 247.151 7.2373 247.142 6.13379C247.132 5.03027 247.127 4.06348 247.127 3.2334C246.57 2.8916 245.633 2.69141 244.314 2.63281C244.275 2.47656 244.256 2.35449 244.256 2.2666C244.256 2.20801 244.275 2.10059 244.314 1.94434Z" fill="black"/>
</svg>
